<svg width="60" height="60" viewBox="0 0 60 60" fill="none" xmlns="http://www.w3.org/2000/svg">
<g id="call (1) 1" clip-path="url(#clip0_1_25)">
<path id="Vector" fill-rule="evenodd" clip-rule="evenodd" d="M30 0C13.4766 0 0 13.4766 0 30C0 46.5234 13.4766 60 30 60C46.5234 60 60 46.5234 60 30C60 13.4766 46.5234 0 30 0ZM45.5859 43.1648C37.1414 50.5758 26.2957 47.5594 19.3934 40.6102C12.4406 33.7043 9.42422 22.8609 16.8387 14.4176C18.041 13.2117 19.5961 11.5441 21.3328 13.282L26.9871 18.9363C27.9105 19.8598 27.9105 21.3715 26.9871 22.2949L23.4996 25.7859C22.7988 26.4832 21.7652 26.6566 20.9016 26.298C21.0539 31.5832 28.4191 38.9473 33.7043 39.1008C33.3492 38.2371 33.518 37.2035 34.2164 36.5062L37.7074 33.0152C38.6309 32.0918 40.1426 32.0918 41.066 33.0152L46.7227 38.6719C48.4559 40.4039 46.7883 41.959 45.5859 43.1648Z" fill="#012A4A"/>
</g>
<defs>
<clipPath id="clip0_1_25">
<rect width="60" height="60" fill="white"/>
</clipPath>
</defs>
</svg>
